<?xml version="1.0" encoding="UTF-8"?>
<svg id="Layer_2" data-name="Layer 2" xmlns="http://www.w3.org/2000/svg" viewBox="0 0 113.53 85.07">
  <defs>
    <style>
      .cls-1 {
        fill: #ff6e00;
      }
    </style>
  </defs>
  <g id="Layer_1-2" data-name="Layer 1">
    <path class="cls-1" d="M57.79,24.84c2.32-1.7,4.94-3.02,7.77-3.84,2.24-.66,4.61-1.01,7.06-1.01.06,0,.11,0,.17,0h0s2.35,0,2.35,0h13.79c.26,0,.51,0,.76-.01,1.44-.04,2.85-.21,4.22-.48,9.83-1.98,17.57-9.69,19.6-19.49h-49.18s0,0,0,.01c0,0,0,.01,0,.02h-13.8c-8.2,0-15.48,3.93-20.06,10.01-1.32,1.75-2.41,3.67-3.24,5.73l-.14.35L8.35,63.83l-2.64,6.72-5.71,14.52h30.67c2.08,0,3.87-1.26,4.63-3.07l.09-.23,3.27-8.3h0l.81-2.07h0s.28-.71.28-.71l.16-.4.17-.44.31-.79h0c.21-.39.44-.75.69-1.09.02-.02.03-.04.05-.06.12-.16.24-.32.37-.47.01-.01.02-.02.03-.04.27-.32.57-.63.88-.92,0,0,.02-.02.03-.03.47-.43.99-.82,1.54-1.16.02-.01.05-.03.07-.04.17-.1.34-.2.52-.29.13-.07.27-.13.4-.19.07-.03.13-.07.2-.1.02-.01.05-.02.07-.03.36-.15.72-.28,1.1-.4.07-.02.15-.04.23-.07.16-.04.33-.09.49-.12.04,0,.07-.02.11-.02.2-.04.41-.08.61-.11.03,0,.07,0,.1-.01.2-.03.4-.05.6-.06,0,0,.02,0,.02,0,0,0,0,0,.01,0,.23-.02.46-.02.69-.02h-.07s.05,0,.07,0h48.85c-.94-2.33-2.08-4.54-3.42-6.63-.04-.07-.09-.14-.13-.21-5.4-8.32-13.78-14.52-23.64-17.07-3.08-.8-6.3-1.24-9.62-1.27-.16,0-.32,0-.47,0-.92,0-1.83.03-2.74.09-2.07.14-4.09.43-6.06.87-.17.04-.35.08-.52.12-.16.04-.31.07-.47.12-.54.13-1.08.28-1.62.44-.17.05-.34.1-.5.15,0,0-.02,0-.03,0,0,0,0,0-.01,0-.14.04-.27.08-.4.13-.03,0-.06.02-.1.03-.21.07-.42.14-.63.21-.34.11-.67.24-1.01.36-.12.05-.24.09-.36.13,0,0-.01,0-.02.01-.07.03-.13.06-.19.09-.04.02-.07.04-.11.05-.01,0-.03.01-.04.02-.01,0-.03.01-.04.02-.06.03-.12.07-.18.1-.02.01-.04.02-.06.04-.01,0-.03.02-.04.02-.03.02-.05.03-.08.05-.06.04-.12.08-.17.12,0,0,0,0,0,0-.02.01-.04.03-.05.04-.04.03-.07.05-.11.08-.02.02-.05.04-.07.06-.05.04-.11.09-.16.13-.02.01-.03.03-.05.04-.05.04-.09.08-.13.12,0,0,0,0,0,0-.13.12-.25.26-.37.39,0,.01-.02.02-.03.03-.03.03-.05.06-.08.1-.02.02-.03.05-.05.07-.06.07-.11.15-.16.23-.03.04-.05.08-.08.13-.03.04-.06.09-.08.13,0,0,0,.01-.01.02-.02.03-.04.06-.05.09,0,.01-.01.02-.02.04-.01.03-.03.05-.04.08-.04.08-.08.15-.11.23-.04.08-.07.16-.11.25-.02.05-.04.09-.05.14-.02.05-.03.1-.05.15,0,.01,0,.02-.01.04,0,.02-.01.05-.02.07-.01.05-.03.09-.04.14,0,.03-.01.05-.02.08,0,.02,0,.03-.01.05-.01.04-.02.09-.03.13,0,.03-.01.06-.02.09,0,.05-.02.09-.03.14,0,.01,0,.02,0,.03,0,.02,0,.04,0,.06,0,.02,0,.04,0,.05,0,.01,0,.03,0,.04,0,.02,0,.03,0,.05,0,.05,0,.1-.01.15,0,.02,0,.05,0,.07,0,0,0,.02,0,.03,0,.05,0,.11,0,.16,0,.05,0,.11,0,.16,0,.65.12,1.27.35,1.84.13.34.31.67.51.97t0,0c.2.29.43.57.68.81.11.1.22.2.33.3,0,0,0,0,0,0,.13.13.27.25.41.37-1.01-.27-1.96-.69-2.81-1.25,0,0,0,0,0,0-1.54-.99-2.79-2.39-3.6-4.04-.65-1.33-1.02-2.83-1.02-4.41,0-4.35,2.76-8.05,6.62-9.45,0,0,.43-.14.43-.14.21-.06.69-.19.72-.2,2.27-.61,4.62-1.03,7.03-1.23,1.02-.08,2.05-.13,3.08-.14.11,0,.23,0,.34,0,1.1,0,2.19.04,3.27.13,2.16.17,4.28.52,6.33,1.02,1.72.42,3.42-.87,3.43-2.64,0-.01,0-.03,0-.04,0-.01,0-.03,0-.04-.02-2.01-2.16-3.29-3.97-2.42-1.9.91-3.92,1.59-6.05,2,0,0-.01,0-.02,0-.71.12-1.43.22-2.14.32-.18.02-.37.04-.56.05-.69.06-1.39.09-2.1.09-.05,0-.1,0-.15,0h0c1.04-1.12,2.18-2.13,3.41-3.02Z"/>
  </g>
</svg>