<?xml version="1.0" encoding="UTF-8"?>
<svg id="Layer_2" data-name="Layer 2" xmlns="http://www.w3.org/2000/svg" viewBox="0 0 308 261.46">
  <defs>
    <style>
      .cls-1 {
        fill: #ff6e01;
      }
    </style>
  </defs>
  <g id="Layer_1-2" data-name="Layer 1">
    <g>
      <path class="cls-1" d="M165.71,85.77c11.27.6,22.03-2.39,31.24-4,8.4-1.46,15.88-1.77,14.1,2.8-4.3,11-17.34,6.92-17.34,6.92,0,0-54.28-8.19-67.04,12.38-12.77,20.57,22.09,40.95,22.09,40.95,2.29-16.95,11.62-15.05,11.62-15.05h22.29c66.47,0,72.44,66.16,72.44,66.16,0,0-73.9-.89-99.54-.89s-34.05,23.24-34.05,23.24c0,0-9.52,23.62-13.2,34.29-3.69,10.67-9.84,8.76-9.84,8.76H0s44.8-112.7,71.27-180.54c10.66,13.39,17.03,30.34,17.03,48.78,0-21.66,8.78-41.26,22.97-55.45s33.79-22.97,55.44-22.97c-21.65,0-41.25-8.78-55.44-22.96-2.43-2.43-4.7-5.01-6.78-7.74C129.45-2.1,159.24.06,159.24.06h148.76c-19.81,49.91-51.37,63.05-90.6,62.92-39.24-.13-51.69,22.79-51.69,22.79Z"/>
      <path class="cls-1" d="M88.3,101.63h0c0-27.88-22.6-50.48-50.48-50.48h0c27.88,0,50.48-22.6,50.48-50.48h0c0,27.88,22.6,50.48,50.48,50.48h0c-27.88,0-50.48,22.6-50.48,50.48Z"/>
    </g>
  </g>
</svg>